<svg width="301" height="254" viewBox="0 0 301 254" fill="none" xmlns="http://www.w3.org/2000/svg">
<mask id="mask0_15_1189" style="mask-type:luminance" maskUnits="userSpaceOnUse" x="0" y="34" width="301" height="219">
<path d="M300.5 34.5H0.5V252.682H300.5V34.5Z" fill="white"/>
</mask>
<g mask="url(#mask0_15_1189)">
<path d="M150.5 97.3098C136.749 84.5812 115.551 71.8522 63.0149 70.9184C59.5642 70.8568 56.75 72.8952 56.75 75.4059C56.75 94.0285 56.75 164.531 56.75 185.382C56.75 187.892 59.5645 189.864 63.0142 189.946C115.551 191.195 136.749 208.135 150.5 220.864M150.5 97.3098C164.251 84.5812 185.449 71.8522 237.983 70.9184C241.435 70.8568 244.248 72.8497 244.248 75.3599C244.248 96.1768 244.248 164.558 244.248 185.375C244.248 187.885 241.435 189.864 237.987 189.946C185.45 191.195 164.251 208.135 150.5 220.864M150.5 97.3098V220.864" stroke="#90D2C8" stroke-width="3" stroke-linejoin="round"/>
<path d="M244.007 89.0454H269.249C272.701 89.0454 275.499 91.0803 275.499 93.5909V212.127C275.499 215.806 269.542 218.249 264.917 216.755C254.982 213.544 238.392 209.62 216.676 209.62C179.911 209.62 150.5 225.409 150.5 225.409C150.5 225.409 121.088 209.62 84.3236 209.62C62.6056 209.62 46.0195 213.544 36.0809 216.755C31.4586 218.249 25.5002 215.806 25.5002 212.127V93.5909C25.5002 91.0803 28.2984 89.0454 31.75 89.0454H56.9936" stroke="#90D2C8" stroke-width="4" stroke-linejoin="round"/>
</g>
<path d="M281.833 49.6469H271.167L259.3 57.54C257.54 58.7133 255.167 57.4603 255.167 55.3269V49.6469C247.167 49.6469 241.833 44.3136 241.833 36.3136V20.3133C241.833 12.3133 247.167 6.97998 255.167 6.97998H281.833C289.833 6.97998 295.167 12.3133 295.167 20.3133V36.3136C295.167 44.3136 289.833 49.6469 281.833 49.6469Z" stroke="#90D2C8" stroke-width="3" stroke-miterlimit="10" stroke-linecap="round" stroke-linejoin="round"/>
<path d="M268.5 30.7932V30.2332C268.5 28.4199 269.62 27.4599 270.74 26.6866C271.833 25.9399 272.927 24.9799 272.927 23.2199C272.927 20.7666 270.953 18.7932 268.5 18.7932C266.047 18.7932 264.073 20.7666 264.073 23.2199" stroke="#90D2C8" stroke-width="3" stroke-linecap="round" stroke-linejoin="round"/>
<path d="M268.488 37.1667H268.512" stroke="#90D2C8" stroke-width="3" stroke-linecap="round" stroke-linejoin="round"/>
</svg>
