<svg width="280" height="107" viewBox="0 0 280 107" fill="none" xmlns="http://www.w3.org/2000/svg">
<path d="M34.9867 93.3333V73.5847H2.92578V66.6361L38.6439 15.0704H50.5905V64.5638H62.1715V73.5847H50.5905V93.3333H34.9867ZM8.28959 64.5638H34.9867V26.1638L8.28959 64.5638Z" fill="#90D2C8"/>
<mask id="mask0_15_964" style="mask-type:luminance" maskUnits="userSpaceOnUse" x="66" y="0" width="148" height="107">
<path d="M213.333 0H66.6667V106.667H213.333V0Z" fill="white"/>
</mask>
<g mask="url(#mask0_15_964)">
<path d="M140 30.707C133.277 24.4841 122.914 18.2611 97.2296 17.8045C95.5426 17.7744 94.1667 18.771 94.1667 19.9984C94.1667 29.1028 94.1667 63.5706 94.1667 73.7643C94.1667 74.9916 95.5427 75.9556 97.2292 75.9956C122.914 76.6062 133.277 84.8879 140 91.111M140 30.707C146.723 24.4841 157.086 18.2611 182.77 17.8045C184.457 17.7744 185.832 18.7487 185.832 19.9759C185.832 30.1531 185.832 63.5839 185.832 73.7613C185.832 74.9883 184.457 75.9556 182.772 75.9956C157.087 76.6062 146.723 84.8879 140 91.111M140 30.707V91.111" stroke="#90D2C8" stroke-width="1.5" stroke-linejoin="round"/>
<path d="M185.714 26.6666H198.055C199.743 26.6666 201.11 27.6615 201.11 28.8889V86.84C201.11 88.6382 198.198 89.8329 195.937 89.1026C191.08 87.5323 182.969 85.6142 172.353 85.6142C154.379 85.6142 140 93.3333 140 93.3333C140 93.3333 125.621 85.6142 107.647 85.6142C97.0295 85.6142 88.9207 87.5323 84.0619 89.1026C81.8021 89.8329 78.8889 88.6382 78.8889 86.84V28.8889C78.8889 27.6615 80.2571 26.6666 81.9445 26.6666H94.2857" stroke="#90D2C8" stroke-width="2.5" stroke-linejoin="round"/>
</g>
<path d="M248.32 93.3333V73.5847H216.259V66.6361L251.977 15.0704H263.924V64.5638H275.505V73.5847H263.924V93.3333H248.32ZM221.623 64.5638H248.32V26.1638L221.623 64.5638Z" fill="#90D2C8"/>
</svg>
