<svg width="500" height="84" viewBox="0 0 500 84" fill="none" xmlns="http://www.w3.org/2000/svg">
<g clip-path="url(#clip0_2_36)">
<path d="M2.22472 72.2222V71.2222L4.04494 70.5222C5.39326 69.9888 6.30337 69.3222 6.77528 68.5222C7.31461 67.7222 7.58427 66.6555 7.58427 65.3222V13.1222C7.58427 11.7222 7.31461 10.6222 6.77528 9.82222C6.30337 9.02222 5.39326 8.38889 4.04494 7.92222L2.22472 7.22222V6.22222H31.2472C39.4719 6.22222 45.4045 7.72222 49.0449 10.7222C52.6854 13.6555 54.5056 17.3889 54.5056 21.9222C54.5056 25.3222 53.1573 28.4222 50.4607 31.2222C47.8315 33.9555 43.2809 35.8889 36.809 37.0222C44.2247 37.8222 49.6517 39.7555 53.0899 42.8222C56.5281 45.8222 58.2472 49.4889 58.2472 53.8222C58.2472 55.9555 57.7753 58.1222 56.8315 60.3222C55.8876 62.4555 54.2697 64.4222 51.9775 66.2222C49.7528 68.0222 46.6854 69.4888 42.7753 70.6222C38.8652 71.6888 33.9101 72.2222 27.9101 72.2222H2.22472ZM22.5506 36.9222H26.8989C31.4157 36.9222 34.6517 35.8889 36.6067 33.8222C38.6292 31.7555 39.6405 28.1555 39.6405 23.0222C39.6405 17.6889 38.7303 13.8889 36.9101 11.6222C35.0899 9.35555 32.1236 8.22222 28.0112 8.22222H22.5506V36.9222ZM22.5506 70.2222H27.6067C32.6629 70.2222 36.4045 68.8888 38.8315 66.2222C41.3258 63.5555 42.573 59.3889 42.573 53.7222C42.573 48.3889 41.3933 44.5889 39.0337 42.3222C36.6742 40.0555 32.7978 38.9222 27.4045 38.9222H22.5506V70.2222Z" fill="#90D2C8"/>
<path d="M163.742 72.2222V71.2222L165.258 70.7222C167.551 69.9888 168.697 68.3555 168.697 65.8222V12.3222C168.697 10.9889 168.427 9.98888 167.888 9.32222C167.348 8.65555 166.404 8.12222 165.056 7.72222L163.742 7.42222V6.42222L182.247 2.12222L183.461 3.02222L183.157 17.0222V65.8222C183.157 68.4888 184.27 70.1555 186.494 70.8222L187.91 71.2222V72.2222H163.742ZM201.258 72.2222L183.258 47.2222L201.966 30.1222C202.843 29.3222 203.348 28.4889 203.483 27.6222C203.685 26.6889 203.112 26.0222 201.764 25.6222L200.045 25.1222V24.1222H215.112V25.1222L212.079 25.9222C210.596 26.3889 209.382 26.9555 208.438 27.6222C207.562 28.2222 206.483 29.0889 205.202 30.2222L193.876 40.7222L211.978 65.6222C213.056 67.0889 214.067 68.2222 215.011 69.0222C215.955 69.8222 217.169 70.4888 218.652 71.0222L219.056 71.2222V72.2222H201.258Z" fill="#90D2C8"/>
<path d="M229.652 72.2222V71.2222L231.169 70.9222C233.865 70.1888 235.213 68.4555 235.213 65.7222C235.281 63.3222 235.315 60.8222 235.315 58.2222C235.315 55.5555 235.315 53.2222 235.315 51.2222V26.1222H229.652V25.0222L231.27 24.7222C233.966 24.2555 235.652 22.6222 236.326 19.8222C238.079 13.4889 241.382 8.78888 246.236 5.72222C251.09 2.65555 256.989 1.12222 263.933 1.12222C268.112 1.12222 271.517 2.02222 274.146 3.82222C276.843 5.55555 278.191 7.75555 278.191 10.4222C278.191 12.2222 277.618 13.6555 276.472 14.7222C275.393 15.7222 273.91 16.2222 272.022 16.2222C270 16.2222 268.382 15.6555 267.169 14.5222C265.955 13.3222 264.91 11.8889 264.034 10.2222L261.708 5.82222C261.236 4.95555 260.663 4.35555 259.989 4.02222C259.315 3.68888 258.573 3.75555 257.764 4.22222C252.573 6.82221 249.876 13.4555 249.674 24.1222H271.213C273.236 24.1222 275.258 23.7889 277.281 23.1222L278.798 22.6222L280.112 23.7222L279.809 37.6222V51.7222C279.809 53.5889 279.775 55.7888 279.708 58.3222C279.708 60.8555 279.742 63.3222 279.809 65.7222C279.809 68.3888 281.09 70.1222 283.652 70.9222L284.36 71.1222V72.2222H260.596V71.2222L261.607 70.8222C264.236 70.0222 265.551 68.2888 265.551 65.6222C265.618 63.1555 265.618 60.5555 265.551 57.8222C265.551 55.0888 265.551 52.8889 265.551 51.2222V44.5222C265.551 42.5222 265.517 40.3889 265.449 38.1222C265.449 35.7889 265.449 33.5555 265.449 31.4222C265.449 29.2889 265.416 27.5222 265.348 26.1222H249.674V51.2222C249.674 53.1555 249.64 55.4555 249.573 58.1222C249.573 60.7222 249.607 63.2222 249.674 65.6222C249.674 68.3555 251.022 70.0555 253.719 70.7222L255.64 71.2222V72.2222H229.652ZM288.407 72.2222V71.2222L289.823 70.8222C292.183 70.1555 293.362 68.5222 293.362 65.9222V34.6222C293.362 33.1555 293.126 32.0889 292.654 31.4222C292.183 30.6889 291.272 30.1889 289.924 29.9222L288.407 29.5222V28.5222L305.699 22.7222L306.711 23.7222L307.52 29.7222C309.879 27.6555 312.542 25.9555 315.508 24.6222C318.475 23.2889 321.407 22.6222 324.306 22.6222C328.756 22.6222 332.16 23.8222 334.52 26.2222C336.947 28.6222 338.16 32.2889 338.16 37.2222V66.0222C338.16 68.6222 339.441 70.2555 342.003 70.9222L342.913 71.2222V72.2222H319.048V71.2222L320.362 70.8222C322.722 70.0888 323.902 68.4555 323.902 65.9222V34.0222C323.902 29.7555 321.744 27.6222 317.43 27.6222C314.463 27.6222 311.228 29.0889 307.722 32.0222V66.0222C307.722 68.6222 308.902 70.2555 311.261 70.9222L312.171 71.2222V72.2222H288.407ZM368.308 73.7222C364.33 73.7222 360.757 72.8555 357.588 71.1222C354.42 69.3222 351.892 66.5888 350.004 62.9222C348.184 59.1888 347.274 54.4222 347.274 48.6222C347.274 42.7555 348.319 37.9222 350.409 34.1222C352.499 30.2555 355.263 27.3889 358.701 25.5222C362.139 23.5889 365.881 22.6222 369.926 22.6222C372.285 22.6222 374.544 22.8555 376.701 23.3222C378.858 23.7889 380.779 24.4889 382.465 25.4222V12.4222C382.465 11.0222 382.229 9.98888 381.757 9.32221C381.353 8.65555 380.442 8.18888 379.027 7.92221L377.105 7.52221V6.52221L395.51 2.12222L396.622 3.02222L396.218 17.0222V65.9222C396.218 67.2555 396.454 68.3555 396.926 69.2222C397.397 70.0222 398.274 70.5888 399.555 70.9222L400.465 71.2222V72.2222L383.173 73.3222L382.263 69.7222C380.442 70.9222 378.353 71.8888 375.993 72.6222C373.701 73.3555 371.139 73.7222 368.308 73.7222ZM374.173 70.0222C377.004 70.0222 379.6 69.1888 381.959 67.5222V27.8222C379.465 26.2222 376.903 25.4222 374.274 25.4222C371.038 25.4222 368.274 27.2889 365.982 31.0222C363.69 34.6889 362.544 40.4889 362.544 48.4222C362.544 56.3555 363.622 61.9555 365.779 65.2222C367.937 68.4222 370.735 70.0222 374.173 70.0222ZM430.319 22.6222C434.701 22.6222 438.442 23.5222 441.544 25.3222C444.645 27.0555 447.004 29.4555 448.622 32.5222C450.308 35.5222 451.15 38.9555 451.15 42.8222C451.15 43.5555 451.117 44.3222 451.049 45.1222C450.982 45.8555 450.847 46.5222 450.645 47.1222H420.51C420.577 54.3222 421.858 59.5222 424.353 62.7222C426.914 65.8555 430.69 67.4222 435.678 67.4222C439.049 67.4222 441.779 66.8888 443.869 65.8222C445.959 64.7555 447.914 63.1888 449.735 61.1222L450.746 62.0222C448.656 65.6888 445.858 68.5555 442.353 70.6222C438.914 72.6888 434.768 73.7222 429.914 73.7222C425.128 73.7222 420.881 72.7222 417.173 70.7222C413.465 68.6555 410.566 65.7222 408.476 61.9222C406.386 58.1222 405.341 53.5889 405.341 48.3222C405.341 42.8555 406.555 38.2222 408.982 34.4222C411.409 30.5555 414.51 27.6222 418.285 25.6222C422.128 23.6222 426.139 22.6222 430.319 22.6222ZM430.015 24.6222C428.06 24.6222 426.375 25.2222 424.959 26.4222C423.611 27.5555 422.532 29.6222 421.723 32.6222C420.982 35.5555 420.577 39.7222 420.51 45.1222H437.802C438.476 37.8555 438.206 32.6222 436.993 29.4222C435.78 26.2222 433.454 24.6222 430.015 24.6222ZM456.19 72.2222V71.2222L457.706 70.8222C459.055 70.4222 459.965 69.8222 460.437 69.0222C460.976 68.2222 461.246 67.1888 461.246 65.9222V34.6222C461.246 33.1555 460.976 32.0889 460.437 31.4222C459.965 30.6889 459.055 30.1889 457.706 29.9222L456.19 29.5222V28.5222L473.583 22.7222L474.594 23.7222L475.504 32.3222V33.1222C476.448 31.2555 477.662 29.5555 479.145 28.0222C480.695 26.4222 482.381 25.1222 484.201 24.1222C486.089 23.1222 487.942 22.6222 489.763 22.6222C492.324 22.6222 494.279 23.3222 495.628 24.7222C496.976 26.1222 497.65 27.8889 497.65 30.0222C497.65 32.2889 496.976 34.0555 495.628 35.3222C494.347 36.5222 492.796 37.1222 490.976 37.1222C488.145 37.1222 485.65 35.7222 483.493 32.9222L483.291 32.7222C482.617 31.7889 481.841 31.2889 480.965 31.2222C480.088 31.0889 479.279 31.4889 478.538 32.4222C477.864 33.0222 477.291 33.7555 476.819 34.6222C476.414 35.4222 476.01 36.3555 475.605 37.4222V65.3222C475.605 67.9888 476.785 69.6555 479.145 70.3222L482.381 71.2222V72.2222H456.19Z" fill="#90D2C8"/>
<mask id="mask0_2_36" style="mask-type:luminance" maskUnits="userSpaceOnUse" x="57" y="5" width="109" height="79">
<path d="M165.73 5.55555H57.5843V83.3333H165.73V5.55555Z" fill="white"/>
</mask>
<g mask="url(#mask0_2_36)">
<path d="M111.657 27.9461C106.7 23.4086 99.0586 18.871 80.1201 18.538C78.8761 18.5161 77.8617 19.2428 77.8617 20.1378C77.8617 26.7764 77.8617 51.9091 77.8617 59.342C77.8617 60.2369 78.8763 60.9398 80.1198 60.969C99.0586 61.4143 106.7 67.453 111.657 71.9906M111.657 27.9461C116.614 23.4086 124.256 18.871 143.194 18.538C144.438 18.5161 145.452 19.2265 145.452 20.1214C145.452 27.5422 145.452 51.9189 145.452 59.3398C145.452 60.2345 144.438 60.9398 143.195 60.969C124.256 61.4143 116.614 67.453 111.657 71.9906M111.657 27.9461V71.9906" stroke="#90D2C8" stroke-width="1.5" stroke-linejoin="round"/>
<path d="M145.365 25H154.465C155.709 25 156.718 25.7254 156.718 26.6204V68.8763C156.718 70.1876 154.57 71.0587 152.903 70.5262C149.322 69.3812 143.341 67.9826 135.513 67.9826C122.26 67.9826 111.657 73.6111 111.657 73.6111C111.657 73.6111 101.055 67.9826 87.8015 67.9826C79.9725 67.9826 73.9934 69.3812 70.4107 70.5262C68.7444 71.0587 66.5965 70.1876 66.5965 68.8763V26.6204C66.5965 25.7254 67.6052 25 68.8494 25H77.9494" stroke="#90D2C8" stroke-width="2.5" stroke-linejoin="round"/>
</g>
</g>
<defs>
<clipPath id="clip0_2_36">
<rect width="500" height="83.3333" fill="white"/>
</clipPath>
</defs>
</svg>
